<?xml version="1.0" encoding="utf-8"?>
<!-- Generator: Adobe Illustrator 19.2.1, SVG Export Plug-In . SVG Version: 6.00 Build 0)  -->
<svg version="1.1" id="Layer_1" xmlns="http://www.w3.org/2000/svg" xmlns:xlink="http://www.w3.org/1999/xlink" x="0px" y="0px"
	 viewBox="0 0 250 250" style="enable-background:new 0 0 250 250;" xml:space="preserve">
<style type="text/css">
	.st0{fill:#F5F5F5;}
	.st1{fill:#34DDDD;}
	.st2{fill:#34DDDD;stroke:#000000;stroke-linecap:round;stroke-miterlimit:10;}
	.st3{fill:#34DDDD;stroke:#000000;stroke-miterlimit:10;}
	.st4{fill:none;stroke:#000000;stroke-linecap:round;stroke-miterlimit:10;}
	.st5{fill:#FFFFFF;stroke:#000000;stroke-linecap:round;stroke-miterlimit:10;}
</style>
<path class="st0" d="M76.8,57.7c-17.7-3.4-40.3,11.2-43.6,27.8c-2,9.8,4.4,12,4.7,25.5c0.5,22.8-17.5,33.4-13.1,41.2
	c5.3,9.5,31.3-7.3,58.6,2.9c27.6,10.2,24.5,36.1,49.1,43.8c25.8,8.2,63.3-9.6,73-33.9c6.6-16.5-2.2-29.2,9.5-46.2
	c7.6-11.1,14.1-9.7,19.4-20c9.3-17.8,2.2-45.9-10.2-49.9c-13.5-4.3-23.8,22.4-42,20c-20.6-2.8-24.6-39.6-39.9-39.4
	c-16.2,0.2-22.1,41.7-40.7,42C91.7,71.8,90.3,60.3,76.8,57.7z"/>
<g>
	<path class="st1" d="M70.3,79v5.2h5v1.3h-5v5.2h-1.4v-5.2h-5v-1.3h5V79H70.3z"/>
</g>
<g>
	<path class="st1" d="M199.8,39.6v5.2h5v1.3h-5v5.2h-1.4v-5.2h-5v-1.3h5v-5.2H199.8z"/>
</g>
<g>
	<path class="st1" d="M223.3,134.8v5.2h5v1.3h-5v5.2h-1.4v-5.2h-5V140h5v-5.2H223.3z"/>
</g>
<g>
	<path class="st1" d="M23.6,125.7v2.9h2.8v0.7h-2.8v2.9h-0.8v-2.9H20v-0.7h2.8v-2.9H23.6z"/>
</g>
<g>
	<path class="st1" d="M227.3,69.8v2.9h2.8v0.7h-2.8v2.9h-0.8v-2.9h-2.8v-0.7h2.8v-2.9H227.3z"/>
</g>
<g>
	<path class="st1" d="M61.1,42.2v2.9h2.8v0.7h-2.8v2.9h-0.8v-2.9h-2.8v-0.7h2.8v-2.9H61.1z"/>
</g>
<circle class="st1" cx="28.8" cy="66.3" r="2.3"/>
<circle class="st1" cx="240" cy="122.8" r="2.3"/>
<circle class="st1" cx="175.6" cy="193.8" r="2.3"/>
<circle class="st1" cx="41.7" cy="172.1" r="2.3"/>
<circle class="st1" cx="48.1" cy="113.6" r="1.7"/>
<circle class="st1" cx="220.3" cy="98.9" r="1.7"/>
<g>
	<path class="st1" d="M212.6,176.4v2.9h2.8v0.7h-2.8v2.9h-0.8V180h-2.8v-0.7h2.8v-2.9H212.6z"/>
</g>
<g>
	<path class="st1" d="M93,190.6v2.9h2.8v0.7H93v2.9h-0.8v-2.9h-2.8v-0.7h2.8v-2.9H93z"/>
</g>
<g>
	<path class="st1" d="M58,142.6v2.9h2.8v0.7H58v2.9h-0.8v-2.9h-2.8v-0.7h2.8v-2.9H58z"/>
</g>
<g>
	<path class="st2" d="M108.6,84.9c0,0-14.2,16.9-12.8,30.1c1.4,13.2,17.9,0.6,17.9,0.6H148"/>
	<path class="st2" d="M153,84.9c0,0,14,16.9,12.6,30.1c-1.4,13.2-18.1,0.6-18.1,0.6H114"/>
	<path class="st3" d="M130.8,27.2c0,0-38.4,47.3-14.5,94.3h-4.9v10h37v-10H145c23.9-47-14.4-94.2-14.4-94.2"/>
	<line class="st4" x1="117" y1="125.5" x2="137" y2="125.5"/>
	<line class="st4" x1="141" y1="125.5" x2="144" y2="125.5"/>
	<line class="st4" x1="130.5" y1="121" x2="130.5" y2="108"/>
	<path class="st4" d="M118.3,48.3c0,0-0.5,31,12.1,19.7s21.4,6.7,21.4,6.7"/>
	<circle class="st5" cx="130.7" cy="87.4" r="13.5"/>
	<path class="st5" d="M146.5,176.4v-44.9h-33v44.9c0,0,8-7.7,16.9,0C139.2,184.1,146.5,176.4,146.5,176.4z"/>
	<line class="st4" x1="120.5" y1="137" x2="120.5" y2="160"/>
	<line class="st4" x1="120.5" y1="164" x2="120.5" y2="170"/>
	<line class="st4" x1="128.5" y1="143" x2="128.5" y2="168"/>
	<line class="st4" x1="139.5" y1="138" x2="139.5" y2="161"/>
	<line class="st4" x1="139.5" y1="164" x2="139.5" y2="169"/>
</g>
<g>
	<path class="st1" d="M169.2,145.9v2.9h2.8v0.7h-2.8v2.9h-0.8v-2.9h-2.8v-0.7h2.8v-2.9H169.2z"/>
</g>
<g>
	<path class="st1" d="M190.7,81.6v2.9h2.8v0.7h-2.8v2.9h-0.8v-2.9h-2.8v-0.7h2.8v-2.9H190.7z"/>
</g>
<circle class="st1" cx="191.9" cy="127.2" r="1.7"/>
<circle class="st1" cx="94.1" cy="138" r="1.7"/>
<circle class="st1" cx="95.8" cy="47.2" r="1.7"/>
</svg>
