<svg id="Layer_1" data-name="Layer 1" xmlns="http://www.w3.org/2000/svg" viewBox="0 0 222.32 200.01"><defs><style>.cls-1{fill:#f5f5f5;}.cls-2,.cls-3,.cls-4{fill:#34dddd;}.cls-2,.cls-4,.cls-5,.cls-6{stroke:#000;stroke-miterlimit:10;}.cls-2,.cls-5,.cls-6{stroke-linecap:round;}.cls-5{fill:none;}.cls-6{fill:#fff;}</style></defs><title>grow</title><path class="cls-1" d="M70.68,73.68C53,70.24,30.43,84.9,27.09,101.52c-2,9.81,4.43,12,4.73,25.47,0.49,22.79-17.47,33.38-13.13,41.22C24,177.75,49.95,161,77.24,171.1c27.57,10.24,24.49,36.07,49.1,43.85,25.84,8.17,63.26-9.55,73-33.87,6.59-16.46-2.21-29.19,9.45-46.21,7.6-11.09,14.08-9.7,19.43-20C237.49,97.12,230.44,69,218,65c-13.45-4.32-23.81,22.45-42,20-20.63-2.83-24.61-39.59-39.91-39.39-16.23.22-22.11,41.71-40.7,42C85.58,87.76,84.2,76.32,70.68,73.68Z" transform="translate(-12.48 -16.95)"/><path class="cls-2" d="M110.8,84.77s-16.67,19.7-15,35.23,21.18,0.5,21.18.5h40" transform="translate(-12.48 -16.95)"/><path class="cls-2" d="M163.05,84.77S179.65,104.46,178,120s-21.26.5-21.26,0.5H117" transform="translate(-12.48 -16.95)"/><path class="cls-3" d="M65.7,85.79V91h5v1.32h-5V97.5H64.3V92.29h-5V91h5V85.79H65.7Z" transform="translate(-12.48 -16.95)"/><path class="cls-3" d="M206.06,47.38v5.17h5v1.32h-5v5.21h-1.41V53.87h-5V52.55h5V47.38h1.41Z" transform="translate(-12.48 -16.95)"/><path class="cls-3" d="M215.75,143.25v5.17h5v1.32h-5V155h-1.41v-5.21h-5v-1.32h5v-5.17h1.41Z" transform="translate(-12.48 -16.95)"/><path class="cls-3" d="M16.06,134.21v2.91h2.79v0.74H16.06v2.93H15.27v-2.93H12.48v-0.74h2.79v-2.91h0.79Z" transform="translate(-12.48 -16.95)"/><path class="cls-3" d="M219.69,78.23v2.89h2.78v0.74h-2.78v2.91H218.9V81.86h-2.78V81.12h2.78V78.23h0.79Z" transform="translate(-12.48 -16.95)"/><path class="cls-3" d="M65.39,53.23v2.89h2.78v0.74H65.39v2.91H64.61V56.86H61.83V56.12h2.78V53.23h0.79Z" transform="translate(-12.48 -16.95)"/><circle class="cls-3" cx="58.2" cy="130.05" r="2.33"/><circle class="cls-3" cx="219.99" cy="114.33" r="2.33"/><circle class="cls-3" cx="155.52" cy="185.34" r="2.33"/><circle class="cls-3" cx="24.01" cy="171.55" r="2.33"/><circle class="cls-3" cx="28.01" cy="92.81" r="1.67"/><circle class="cls-3" cx="191.22" cy="82.22" r="1.67"/><path class="cls-3" d="M222.86,182.9v2.89h2.78v0.74h-2.78v2.91h-0.79v-2.91H219.3v-0.74h2.78V182.9h0.79Z" transform="translate(-12.48 -16.95)"/><path class="cls-3" d="M85.44,199v2.89h2.78v0.74H85.44v2.91H84.65v-2.91H81.88V201.9h2.78V199h0.79Z" transform="translate(-12.48 -16.95)"/><path class="cls-4" d="M137.07,17.26S91.87,72.5,120,128.5H114.5v11h43v-11h-3.68c28.17-56-17-111-17-111" transform="translate(-12.48 -16.95)"/><line class="cls-5" x1="108.52" y1="116.55" x2="132.52" y2="116.55"/><line class="cls-5" x1="136.52" y1="116.55" x2="140.52" y2="116.55"/><line class="cls-5" x1="124.02" y1="111.05" x2="124.02" y2="95.05"/><path class="cls-5" d="M122.28,42s-0.59,36.48,14.22,23.24,25.16,7.85,25.16,7.85" transform="translate(-12.48 -16.95)"/><circle class="cls-6" cx="123.88" cy="71.11" r="15.94"/><path class="cls-6" d="M155.5,193V139.5h-38V193s9-9,19.44,0S155.5,193,155.5,193Z" transform="translate(-12.48 -16.95)"/><line class="cls-5" x1="112.02" y1="129.05" x2="112.02" y2="156.05"/><line class="cls-5" x1="112.02" y1="161.05" x2="112.02" y2="169.05"/><line class="cls-5" x1="121.02" y1="137.05" x2="121.02" y2="166.05"/><line class="cls-5" x1="135.02" y1="130.05" x2="135.02" y2="157.05"/><line class="cls-5" x1="135.02" y1="161.05" x2="135.02" y2="168.05"/></svg>