<svg id="Layer_1" data-name="Layer 1" xmlns="http://www.w3.org/2000/svg" viewBox="0 0 222.32 172.96"><defs><style>.cls-1{fill:#f5f5f5;}.cls-2{fill:#a7f9f7;}.cls-3{fill:none;}.cls-3,.cls-4{stroke:#000;}.cls-3,.cls-4,.cls-5{stroke-miterlimit:10;}.cls-4,.cls-6{fill:#34dddd;}.cls-5{fill:#000202;stroke:#fff;stroke-linecap:round;stroke-width:3px;}</style></defs><title>prompt</title><path class="cls-1" d="M76.08,57.68C58.42,54.24,35.83,68.9,32.5,85.52c-2,9.81,4.43,12,4.73,25.47,0.49,22.79-17.47,33.38-13.13,41.22,5.28,9.54,31.25-7.25,58.55,2.89,27.57,10.24,24.49,36.07,49.1,43.85,25.84,8.17,63.26-9.55,73-33.87,6.59-16.46-2.21-29.19,9.45-46.21,7.6-11.09,14.08-9.7,19.43-20C242.89,81.12,235.85,53,223.38,49c-13.45-4.32-23.81,22.45-42,20-20.63-2.83-24.61-39.59-39.91-39.39-16.23.22-22.11,41.71-40.7,42C91,71.76,89.61,60.32,76.08,57.68Z" transform="translate(-19.48 -28)"/><path class="cls-2" d="M99.89,117.1L99.7,33a5,5,0,0,1,5-5h88.7c2.75,0,4.58,2.37,4.58,5.12V143.29c0,2.75.22,7.25,0.23,10l0.15,12.23A13.35,13.35,0,0,1,185,179H81" transform="translate(-19.48 -28)"/><path class="cls-3" d="M99.89,117.35l-0.19-84a4.93,4.93,0,0,1,5-4.88h88.7c2.75,0,5.08,1.87,5.08,4.62V143.29c0,2.75,0,7.25,0,10l0,12.48A13.67,13.67,0,0,1,185,179.5H81" transform="translate(-19.48 -28)"/><path class="cls-4" d="M99.79,149.58l0,5.12c0,13.64-8.27,24.7-18.48,24.7S62.8,168.33,62.8,154.69" transform="translate(-19.48 -28)"/><path class="cls-4" d="M62.8,156.18V125a7.79,7.79,0,0,1,7.79-7.79H99.95l-0.16,32.38" transform="translate(-19.48 -28)"/><line class="cls-5" x1="107.52" y1="19.5" x2="167.52" y2="19.5"/><line class="cls-5" x1="93.52" y1="42.5" x2="167.52" y2="42.5"/><line class="cls-5" x1="93.52" y1="27.5" x2="167.52" y2="27.5"/><line class="cls-5" x1="93.52" y1="34.5" x2="167.52" y2="34.5"/><line class="cls-5" x1="93.52" y1="51.5" x2="158.52" y2="51.5"/><line class="cls-5" x1="107.52" y1="65.5" x2="167.52" y2="65.5"/><line class="cls-5" x1="93.52" y1="73.5" x2="167.52" y2="73.5"/><line class="cls-5" x1="93.52" y1="80.5" x2="167.52" y2="80.5"/><line class="cls-5" x1="93.52" y1="88.5" x2="158.52" y2="88.5"/><line class="cls-5" x1="107.52" y1="103.5" x2="167.52" y2="103.5"/><line class="cls-5" x1="93.52" y1="110.5" x2="167.52" y2="110.5"/><line class="cls-5" x1="93.52" y1="118.5" x2="167.52" y2="118.5"/><line class="cls-5" x1="93.52" y1="125.5" x2="158.52" y2="125.5"/><path class="cls-6" d="M218.51,41.65v5.17h5v1.32h-5v5.21H217.1V48.14h-5V46.82h5V41.65h1.41Z" transform="translate(-19.48 -28)"/><path class="cls-6" d="M222.76,134.78V140h5v1.32h-5v5.21h-1.41v-5.21h-5V140h5v-5.17h1.41Z" transform="translate(-19.48 -28)"/><path class="cls-6" d="M23.07,125.75v2.91h2.79v0.74H23.07v2.93H22.28v-2.93H19.48v-0.74h2.79v-2.91h0.79Z" transform="translate(-19.48 -28)"/><path class="cls-6" d="M226.69,69.77v2.89h2.78v0.74h-2.78V76.3h-0.79V73.39h-2.78V72.65h2.78V69.77h0.79Z" transform="translate(-19.48 -28)"/><path class="cls-6" d="M60.54,42.23v2.89h2.78v0.74H60.54v2.91H59.75V45.86H57V45.12h2.78V42.23h0.79Z" transform="translate(-19.48 -28)"/><circle class="cls-6" cx="8.71" cy="38.25" r="2.33"/><circle class="cls-6" cx="219.99" cy="94.81" r="2.33"/><circle class="cls-6" cx="155.52" cy="165.82" r="2.33"/><circle class="cls-6" cx="21.67" cy="144.1" r="2.33"/><circle class="cls-6" cx="28.01" cy="85.61" r="1.67"/><circle class="cls-6" cx="192.18" cy="69.2" r="1.67"/><path class="cls-6" d="M212.06,176.4v2.89h2.78V180h-2.78v2.91h-0.79V180h-2.78v-0.74h2.78V176.4h0.79Z" transform="translate(-19.48 -28)"/><path class="cls-6" d="M92.45,190.55v2.89h2.78v0.74H92.45v2.91H91.66v-2.91H88.88v-0.74h2.78v-2.89h0.79Z" transform="translate(-19.48 -28)"/><path class="cls-6" d="M74.19,81.6v2.89H77v0.74H74.19v2.91H73.41V85.22H70.63V84.49h2.78V81.6h0.79Z" transform="translate(-19.48 -28)"/><circle class="cls-6" cx="66.27" cy="23.69" r="1.67"/></svg>