<svg id="Layer_1" data-name="Layer 1" xmlns="http://www.w3.org/2000/svg" viewBox="0 0 222.32 189.96"><defs><style>.cls-1{fill:#f5f5f5;}.cls-2{fill:#a7f9f7;}.cls-3,.cls-5{fill:none;}.cls-3,.cls-4{stroke:#000;}.cls-3,.cls-4,.cls-5{stroke-miterlimit:10;}.cls-4,.cls-6{fill:#34dddd;}.cls-5{stroke:#fff;stroke-linecap:round;stroke-width:3px;}</style></defs><title>prompt</title><path class="cls-1" d="M72.68,91.68C55,88.24,32.43,102.9,29.09,119.52c-2,9.81,4.43,12,4.73,25.47,0.49,22.79-17.47,33.38-13.13,41.22C26,195.75,51.95,179,79.24,189.1c27.57,10.24,24.49,36.07,49.1,43.85,25.84,8.17,63.26-9.55,73-33.87,6.59-16.46-2.21-29.19,9.45-46.21,7.6-11.09,14.08-9.7,19.43-20C239.49,115.12,232.44,87,220,83c-13.45-4.32-23.81,22.45-42,20-20.63-2.83-24.61-39.59-39.91-39.39-16.23.22-22.11,41.71-40.7,42C87.58,105.76,86.2,94.32,72.68,91.68Z" transform="translate(-14.48 -45)"/><path class="cls-2" d="M87,140.75L86.82,51a5,5,0,0,1,5-5h95.07A4.86,4.86,0,0,1,192,50.68V168.6c0,2.75-.05,7.25,0,10l0,13.7A14.63,14.63,0,0,1,177.55,207H67" transform="translate(-14.48 -45)"/><path class="cls-3" d="M87,140.5L86.82,50.59a5.08,5.08,0,0,1,5-5.09h95.07c2.75,0,4.63,2.43,4.63,5.18V168.6c0,2.75.2,7.25,0.21,10l0.15,13.45a14.31,14.31,0,0,1-14.3,14.45H67" transform="translate(-14.48 -45)"/><path class="cls-4" d="M86.88,175l0,5.45c0,14.52-8.81,26.29-19.67,26.29S47.5,194.94,47.5,180.42" transform="translate(-14.48 -45)"/><path class="cls-4" d="M47.5,182V148.8a8.3,8.3,0,0,1,8.3-8.3H87L86.88,175" transform="translate(-14.48 -45)"/><line class="cls-5" x1="101.52" y1="21.5" x2="165.52" y2="21.5"/><line class="cls-5" x1="86.52" y1="46.5" x2="165.52" y2="46.5"/><line class="cls-5" x1="86.52" y1="29.5" x2="165.52" y2="29.5"/><line class="cls-5" x1="86.52" y1="37.5" x2="165.52" y2="37.5"/><line class="cls-5" x1="86.52" y1="54.5" x2="155.52" y2="54.5"/><line class="cls-5" x1="101.52" y1="70.5" x2="165.52" y2="70.5"/><line class="cls-5" x1="86.52" y1="78.5" x2="165.52" y2="78.5"/><line class="cls-5" x1="86.52" y1="86.5" x2="165.52" y2="86.5"/><line class="cls-5" x1="86.52" y1="94.5" x2="155.52" y2="94.5"/><line class="cls-5" x1="101.52" y1="110.5" x2="165.52" y2="110.5"/><line class="cls-5" x1="86.52" y1="118.5" x2="165.52" y2="118.5"/><line class="cls-5" x1="86.52" y1="126.5" x2="165.52" y2="126.5"/><line class="cls-5" x1="86.52" y1="134.5" x2="155.52" y2="134.5"/><path class="cls-6" d="M67.7,103.79V109h5v1.32h-5v5.21H66.3v-5.21h-5V109h5v-5.17H67.7Z" transform="translate(-14.48 -45)"/><path class="cls-6" d="M208.06,65.38v5.17h5v1.32h-5v5.21h-1.41V71.87h-5V70.55h5V65.38h1.41Z" transform="translate(-14.48 -45)"/><path class="cls-6" d="M217.75,161.25v5.17h5v1.32h-5V173h-1.41v-5.21h-5v-1.32h5v-5.17h1.41Z" transform="translate(-14.48 -45)"/><path class="cls-6" d="M18.06,152.21v2.91h2.79v0.74H18.06v2.93H17.27v-2.93H14.48v-0.74h2.79v-2.91h0.79Z" transform="translate(-14.48 -45)"/><path class="cls-6" d="M221.69,96.23v2.89h2.78v0.74h-2.78v2.91H220.9V99.86h-2.78V99.12h2.78V96.23h0.79Z" transform="translate(-14.48 -45)"/><path class="cls-6" d="M67.39,71.23v2.89h2.78v0.74H67.39v2.91H66.61V74.86H63.83V74.12h2.78V71.23h0.79Z" transform="translate(-14.48 -45)"/><circle class="cls-6" cx="16.36" cy="54.5" r="2.33"/><circle class="cls-6" cx="219.99" cy="104.27" r="2.33"/><circle class="cls-6" cx="155.52" cy="175.28" r="2.33"/><circle class="cls-6" cx="24.01" cy="161.5" r="2.33"/><circle class="cls-6" cx="28.01" cy="82.75" r="1.67"/><circle class="cls-6" cx="191.22" cy="72.17" r="1.67"/><path class="cls-6" d="M224.86,200.9v2.89h2.78v0.74h-2.78v2.91h-0.79v-2.91H221.3v-0.74h2.78V200.9h0.79Z" transform="translate(-14.48 -45)"/><path class="cls-6" d="M87.44,217v2.89h2.78v0.74H87.44v2.91H86.65v-2.91H83.88V219.9h2.78V217h0.79Z" transform="translate(-14.48 -45)"/></svg>