<?xml version="1.0" encoding="utf-8"?>
<!-- Generator: Adobe Illustrator 19.2.1, SVG Export Plug-In . SVG Version: 6.00 Build 0)  -->
<svg version="1.1" id="Layer_1" xmlns="http://www.w3.org/2000/svg" xmlns:xlink="http://www.w3.org/1999/xlink" x="0px" y="0px"
	 viewBox="0 0 250 250" style="enable-background:new 0 0 250 250;" xml:space="preserve">
<style type="text/css">
	.st0{fill:#F5F5F5;}
	.st1{fill:#34DDDD;}
	.st2{fill:#A7F9F7;}
	.st3{fill:none;stroke:#000000;stroke-miterlimit:10;}
	.st4{fill:#34DDDD;stroke:#000000;stroke-miterlimit:10;}
	.st5{fill:#000202;stroke:#FFFFFF;stroke-width:3;stroke-linecap:round;stroke-miterlimit:10;}
</style>
<path class="st0" d="M76.8,57.7c-17.7-3.4-40.3,11.2-43.6,27.8c-2,9.8,4.4,12,4.7,25.5c0.5,22.8-17.5,33.4-13.1,41.2
	c5.3,9.5,31.3-7.3,58.6,2.9c27.6,10.2,24.5,36.1,49.1,43.8c25.8,8.2,63.3-9.6,73-33.9c6.6-16.5-2.2-29.2,9.5-46.2
	c7.6-11.1,14.1-9.7,19.4-20c9.3-17.8,2.2-45.9-10.2-49.9c-13.5-4.3-23.8,22.4-42,20c-20.6-2.8-24.6-39.6-39.9-39.4
	c-16.2,0.2-22.1,41.7-40.7,42C91.7,71.8,90.3,60.3,76.8,57.7z"/>
<g>
	<path class="st1" d="M74,83.5v5.2h5V90h-5v5.2h-1.4V90h-5v-1.3h5v-5.2H74z"/>
</g>
<g>
	<path class="st1" d="M212.7,41.6v5.2h5v1.3h-5v5.2h-1.4v-5.2h-5v-1.3h5v-5.2H212.7z"/>
</g>
<g>
	<path class="st1" d="M223.1,134.8v5.2h5v1.3h-5v5.2h-1.4v-5.2h-5V140h5v-5.2H223.1z"/>
</g>
<g>
	<path class="st1" d="M25.1,125.7v2.9h2.8v0.7h-2.8v2.9h-0.8v-2.9h-2.8v-0.7h2.8v-2.9H25.1z"/>
</g>
<g>
	<path class="st1" d="M227,69.8v2.9h2.8v0.7H227v2.9h-0.8v-2.9h-2.8v-0.7h2.8v-2.9H227z"/>
</g>
<g>
	<path class="st1" d="M76.8,52.2v2.9h2.8v0.7h-2.8v2.9H76v-2.9h-2.8v-0.7H76v-2.9H76.8z"/>
</g>
<circle class="st1" cx="30.2" cy="66.3" r="2.3"/>
<circle class="st1" cx="239.8" cy="122.8" r="2.3"/>
<circle class="st1" cx="175.3" cy="193.8" r="2.3"/>
<circle class="st1" cx="41.5" cy="172.1" r="2.3"/>
<circle class="st1" cx="47.8" cy="113.6" r="1.7"/>
<circle class="st1" cx="220" cy="98.9" r="1.7"/>
<g>
	<path class="st1" d="M212.4,176.4v2.9h2.8v0.7h-2.8v2.9h-0.8V180h-2.8v-0.7h2.8v-2.9H212.4z"/>
</g>
<g>
	<path class="st1" d="M92.8,190.6v2.9h2.8v0.7h-2.8v2.9H92v-2.9h-2.8v-0.7H92v-2.9H92.8z"/>
</g>
<g>
	<path class="st1" d="M57.8,142.6v2.9h2.8v0.7h-2.8v2.9H57v-2.9h-2.8v-0.7H57v-2.9H57.8z"/>
</g>
<g>
	<g>
		<path class="st2" d="M101,116.9l-0.2-84.1c0-2.7,2.3-4.8,5-4.8h89c2.8,0,5.2,1.9,5.2,4.7v110.5c0,2.8-0.1,7.2-0.1,10l0,12.3
			c0,7.5-6.1,13.5-13.6,13.5H82"/>
		<path class="st3" d="M101,117.2l-0.2-84.5c0-2.7,2.3-5.2,5-5.2h89c2.8,0,4.7,2.4,4.7,5.2v110.5c0,2.8,0.2,7.2,0.2,10l0.1,12.5
			c0,7.5-6,13.8-13.5,13.8H82"/>
	</g>
	<g>
		<path class="st4" d="M100.9,149.5l0,5.1c0,13.7-8.3,24.8-18.5,24.8s-18.5-11.1-18.5-24.8"/>
		<path class="st4" d="M63.8,156.1v-31.3c0-4.3,3.5-7.8,7.8-7.8H101l-0.2,32.5"/>
	</g>
	<g>
		<line class="st5" x1="128" y1="47.5" x2="188" y2="47.5"/>
		<line class="st5" x1="114" y1="70.5" x2="188" y2="70.5"/>
		<line class="st5" x1="114" y1="55.5" x2="188" y2="55.5"/>
		<line class="st5" x1="114" y1="62.5" x2="188" y2="62.5"/>
	</g>
	<line class="st5" x1="114" y1="79.5" x2="179" y2="79.5"/>
	<g>
		<line class="st5" x1="128" y1="93.5" x2="188" y2="93.5"/>
		<line class="st5" x1="114" y1="101.5" x2="188" y2="101.5"/>
		<line class="st5" x1="114" y1="108.5" x2="188" y2="108.5"/>
	</g>
	<line class="st5" x1="114" y1="116.5" x2="179" y2="116.5"/>
	<g>
		<line class="st5" x1="128" y1="131.5" x2="188" y2="131.5"/>
		<line class="st5" x1="114" y1="138.5" x2="188" y2="138.5"/>
		<line class="st5" x1="114" y1="146.5" x2="188" y2="146.5"/>
	</g>
	<line class="st5" x1="114" y1="153.5" x2="179" y2="153.5"/>
</g>
</svg>
