<?xml version="1.0" encoding="utf-8"?>
<!-- Generator: Adobe Illustrator 19.2.1, SVG Export Plug-In . SVG Version: 6.00 Build 0)  -->
<svg version="1.1" id="Layer_1" xmlns="http://www.w3.org/2000/svg" xmlns:xlink="http://www.w3.org/1999/xlink" x="0px" y="0px"
	 viewBox="0 0 250 250" style="enable-background:new 0 0 250 250;" xml:space="preserve">
<style type="text/css">
	.st0{fill:#F5F5F5;}
	.st1{fill:#FFFFFF;}
	.st2{fill:none;stroke:#000000;stroke-miterlimit:10;}
	.st3{fill:#FFFFFF;stroke:#E0E0E0;stroke-width:3;stroke-linecap:round;stroke-miterlimit:10;}
	.st4{fill:#A7F9F7;}
	.st5{fill:#A7F9F7;stroke:#000000;stroke-miterlimit:10;}
	.st6{fill:#A7F9F7;stroke:#FFFFFF;stroke-width:3;stroke-linecap:round;stroke-miterlimit:10;}
	.st7{fill:#BDBDBD;stroke:#000000;stroke-miterlimit:10;}
	.st8{fill:#07D6C7;}
	.st9{fill:#34DDDD;}
</style>
<path class="st0" d="M76.8,57.7c-17.7-3.4-40.3,11.2-43.6,27.8c-2,9.8,4.4,12,4.7,25.5c0.5,22.8-17.5,33.4-13.1,41.2
	c5.3,9.5,31.3-7.3,58.6,2.9c27.6,10.2,24.5,36.1,49.1,43.8c25.8,8.2,63.3-9.6,73-33.9c6.6-16.5-2.2-29.2,9.5-46.2
	c7.6-11.1,14.1-9.7,19.4-20c9.3-17.8,2.2-45.9-10.2-49.9c-13.5-4.3-23.8,22.4-42,20c-20.6-2.8-24.6-39.6-39.9-39.4
	c-16.2,0.2-22.1,41.7-40.7,42C91.7,71.8,90.3,60.3,76.8,57.7z"/>
<g>
	<rect x="76.4" y="79" width="110.5" height="9"/>
	<g>
		<path class="st1" d="M79,88.1l-0.2-55.2c0-2.7,2.2-4.9,4.9-4.9h95.1c2.8,0,5.3,1.9,5.3,4.7V88"/>
		<path class="st2" d="M78.7,88.1l-0.1-55.4c0-2.7,2.3-5.2,5-5.2h95.1c2.8,0,4.8,2.4,4.8,5.2V88"/>
	</g>
	<g>
		<line class="st3" x1="108" y1="45.5" x2="172" y2="45.5"/>
		<line class="st3" x1="93" y1="70.5" x2="172" y2="70.5"/>
		<line class="st3" x1="93" y1="53.5" x2="172" y2="53.5"/>
		<line class="st3" x1="93" y1="61.5" x2="172" y2="61.5"/>
	</g>
	<line class="st3" x1="93" y1="78.5" x2="162" y2="78.5"/>
	<g>
		<path class="st4" d="M192.9,174.7c0,2.8-2.3,5-5,5H75.2c-2.8,0-5-2.3-5-5V92.9c0-2.8,2.3-5,5-5h112.7c2.8,0,5,2.3,5,5V174.7z"/>
		<path class="st2" d="M192.9,174.7c0,2.8-2.3,5-5,5H75.2c-2.8,0-5-2.3-5-5V92.9c0-2.8,2.3-5,5-5h112.7c2.8,0,5,2.3,5,5V174.7z"/>
	</g>
	<line class="st5" x1="70" y1="170.5" x2="193" y2="170.5"/>
	<line class="st6" x1="107" y1="96.5" x2="155" y2="96.5"/>
	<path class="st2" d="M70.3,108.1c5,0.1,6.2-4.1,6.2-4.1V88"/>
	<path class="st2" d="M186.5,88v16c0,0,1.2,4.2,6.2,4.1"/>
	<line class="st2" x1="76" y1="104.5" x2="187" y2="104.5"/>
	<path class="st2" d="M63.5,107.1L63.5,107.1c-1.4,0-2.6-1.2-2.6-2.6V93.2c0-1.4,1.2-2.6,2.6-2.6h0c1.4,0,2.6,1.2,2.6,2.6v11.3
		C66,105.9,64.9,107.1,63.5,107.1z"/>
	<line class="st7" x1="66" y1="96.5" x2="70" y2="96.5"/>
	<line class="st7" x1="66" y1="100.5" x2="70" y2="100.5"/>
	<path class="st2" d="M199.3,107.1L199.3,107.1c1.4,0,2.6-1.2,2.6-2.6V93.2c0-1.4-1.2-2.6-2.6-2.6l0,0c-1.4,0-2.6,1.2-2.6,2.6v11.3
		C196.7,105.9,197.9,107.1,199.3,107.1z"/>
	<line class="st7" x1="197" y1="96.5" x2="193" y2="96.5"/>
	<line class="st7" x1="197" y1="100.5" x2="193" y2="100.5"/>
	<g>
		<path class="st8" d="M186.4,161.5c0,2.8-2.3,5-5,5H81.7c-2.8,0-5-2.3-5-5v-36.3c0-2.8,2.3-5,5-5h99.6c2.8,0,5,2.3,5,5V161.5z"/>
		<path class="st2" d="M186.4,161.5c0,2.8-2.3,5-5,5H81.7c-2.8,0-5-2.3-5-5v-36.3c0-2.8,2.3-5,5-5h99.6c2.8,0,5,2.3,5,5V161.5z"/>
	</g>
	<g>
		<path class="st9" d="M95.9,124.8c0,1.1-0.9,2-2,2h-8.8c-1.1,0-2-0.9-2-2V120c0-1.1,0.9-2,2-2h8.8c1.1,0,2,0.9,2,2V124.8z"/>
		<path class="st2" d="M95.9,124.8c0,1.1-0.9,2-2,2h-8.8c-1.1,0-2-0.9-2-2V120c0-1.1,0.9-2,2-2h8.8c1.1,0,2,0.9,2,2V124.8z"/>
	</g>
	<g>
		<path class="st9" d="M113.1,124.8c0,1.1-0.9,2-2,2h-8.8c-1.1,0-2-0.9-2-2V120c0-1.1,0.9-2,2-2h8.8c1.1,0,2,0.9,2,2V124.8z"/>
		<path class="st2" d="M113.1,124.8c0,1.1-0.9,2-2,2h-8.8c-1.1,0-2-0.9-2-2V120c0-1.1,0.9-2,2-2h8.8c1.1,0,2,0.9,2,2V124.8z"/>
	</g>
	<g>
		<path class="st9" d="M130.3,124.8c0,1.1-0.9,2-2,2h-8.8c-1.1,0-2-0.9-2-2V120c0-1.1,0.9-2,2-2h8.8c1.1,0,2,0.9,2,2V124.8z"/>
		<path class="st2" d="M130.3,124.8c0,1.1-0.9,2-2,2h-8.8c-1.1,0-2-0.9-2-2V120c0-1.1,0.9-2,2-2h8.8c1.1,0,2,0.9,2,2V124.8z"/>
	</g>
	<g>
		<path class="st9" d="M147.5,124.8c0,1.1-0.9,2-2,2h-8.8c-1.1,0-2-0.9-2-2V120c0-1.1,0.9-2,2-2h8.8c1.1,0,2,0.9,2,2V124.8z"/>
		<path class="st2" d="M147.5,124.8c0,1.1-0.9,2-2,2h-8.8c-1.1,0-2-0.9-2-2V120c0-1.1,0.9-2,2-2h8.8c1.1,0,2,0.9,2,2V124.8z"/>
	</g>
	<g>
		<path class="st9" d="M164.7,124.8c0,1.1-0.9,2-2,2h-8.8c-1.1,0-2-0.9-2-2V120c0-1.1,0.9-2,2-2h8.8c1.1,0,2,0.9,2,2V124.8z"/>
		<path class="st2" d="M164.7,124.8c0,1.1-0.9,2-2,2h-8.8c-1.1,0-2-0.9-2-2V120c0-1.1,0.9-2,2-2h8.8c1.1,0,2,0.9,2,2V124.8z"/>
	</g>
	<g>
		<path class="st9" d="M181.9,124.8c0,1.1-0.9,2-2,2h-8.8c-1.1,0-2-0.9-2-2V120c0-1.1,0.9-2,2-2h8.8c1.1,0,2,0.9,2,2V124.8z"/>
		<path class="st2" d="M181.9,124.8c0,1.1-0.9,2-2,2h-8.8c-1.1,0-2-0.9-2-2V120c0-1.1,0.9-2,2-2h8.8c1.1,0,2,0.9,2,2V124.8z"/>
	</g>
	<g>
		<path class="st9" d="M87.3,136c0,1.1-0.9,2-2,2h-8.8c-1.1,0-2-0.9-2-2v-4.8c0-1.1,0.9-2,2-2h8.8c1.1,0,2,0.9,2,2V136z"/>
		<path class="st2" d="M87.3,136c0,1.1-0.9,2-2,2h-8.8c-1.1,0-2-0.9-2-2v-4.8c0-1.1,0.9-2,2-2h8.8c1.1,0,2,0.9,2,2V136z"/>
	</g>
	<g>
		<path class="st9" d="M104.5,136c0,1.1-0.9,2-2,2h-8.8c-1.1,0-2-0.9-2-2v-4.8c0-1.1,0.9-2,2-2h8.8c1.1,0,2,0.9,2,2V136z"/>
		<path class="st2" d="M104.5,136c0,1.1-0.9,2-2,2h-8.8c-1.1,0-2-0.9-2-2v-4.8c0-1.1,0.9-2,2-2h8.8c1.1,0,2,0.9,2,2V136z"/>
	</g>
	<g>
		<path class="st9" d="M121.7,136c0,1.1-0.9,2-2,2h-8.8c-1.1,0-2-0.9-2-2v-4.8c0-1.1,0.9-2,2-2h8.8c1.1,0,2,0.9,2,2V136z"/>
		<path class="st2" d="M121.7,136c0,1.1-0.9,2-2,2h-8.8c-1.1,0-2-0.9-2-2v-4.8c0-1.1,0.9-2,2-2h8.8c1.1,0,2,0.9,2,2V136z"/>
	</g>
	<g>
		<path class="st9" d="M138.9,136c0,1.1-0.9,2-2,2h-8.8c-1.1,0-2-0.9-2-2v-4.8c0-1.1,0.9-2,2-2h8.8c1.1,0,2,0.9,2,2V136z"/>
		<path class="st2" d="M138.9,136c0,1.1-0.9,2-2,2h-8.8c-1.1,0-2-0.9-2-2v-4.8c0-1.1,0.9-2,2-2h8.8c1.1,0,2,0.9,2,2V136z"/>
	</g>
	<g>
		<path class="st9" d="M156.1,136c0,1.1-0.9,2-2,2h-8.8c-1.1,0-2-0.9-2-2v-4.8c0-1.1,0.9-2,2-2h8.8c1.1,0,2,0.9,2,2V136z"/>
		<path class="st2" d="M156.1,136c0,1.1-0.9,2-2,2h-8.8c-1.1,0-2-0.9-2-2v-4.8c0-1.1,0.9-2,2-2h8.8c1.1,0,2,0.9,2,2V136z"/>
	</g>
	<g>
		<path class="st9" d="M173.3,136c0,1.1-0.9,2-2,2h-8.8c-1.1,0-2-0.9-2-2v-4.8c0-1.1,0.9-2,2-2h8.8c1.1,0,2,0.9,2,2V136z"/>
		<path class="st2" d="M173.3,136c0,1.1-0.9,2-2,2h-8.8c-1.1,0-2-0.9-2-2v-4.8c0-1.1,0.9-2,2-2h8.8c1.1,0,2,0.9,2,2V136z"/>
	</g>
	<g>
		<path class="st9" d="M189.3,136c0,1.1-0.9,2-2,2h-8.8c-1.1,0-2-0.9-2-2v-4.8c0-1.1,0.9-2,2-2h8.8c1.1,0,2,0.9,2,2V136z"/>
		<path class="st2" d="M189.3,136c0,1.1-0.9,2-2,2h-8.8c-1.1,0-2-0.9-2-2v-4.8c0-1.1,0.9-2,2-2h8.8c1.1,0,2,0.9,2,2V136z"/>
	</g>
	<g>
		<path class="st9" d="M95.7,148.3c0,1.1-0.9,2-2,2h-8.8c-1.1,0-2-0.9-2-2v-4.8c0-1.1,0.9-2,2-2h8.8c1.1,0,2,0.9,2,2V148.3z"/>
		<path class="st2" d="M95.7,148.3c0,1.1-0.9,2-2,2h-8.8c-1.1,0-2-0.9-2-2v-4.8c0-1.1,0.9-2,2-2h8.8c1.1,0,2,0.9,2,2V148.3z"/>
	</g>
	<g>
		<path class="st9" d="M112.9,148.3c0,1.1-0.9,2-2,2h-8.8c-1.1,0-2-0.9-2-2v-4.8c0-1.1,0.9-2,2-2h8.8c1.1,0,2,0.9,2,2V148.3z"/>
		<path class="st2" d="M112.9,148.3c0,1.1-0.9,2-2,2h-8.8c-1.1,0-2-0.9-2-2v-4.8c0-1.1,0.9-2,2-2h8.8c1.1,0,2,0.9,2,2V148.3z"/>
	</g>
	<g>
		<path class="st9" d="M130.1,148.3c0,1.1-0.9,2-2,2h-8.8c-1.1,0-2-0.9-2-2v-4.8c0-1.1,0.9-2,2-2h8.8c1.1,0,2,0.9,2,2V148.3z"/>
		<path class="st2" d="M130.1,148.3c0,1.1-0.9,2-2,2h-8.8c-1.1,0-2-0.9-2-2v-4.8c0-1.1,0.9-2,2-2h8.8c1.1,0,2,0.9,2,2V148.3z"/>
	</g>
	<g>
		<path class="st9" d="M147.3,148.3c0,1.1-0.9,2-2,2h-8.8c-1.1,0-2-0.9-2-2v-4.8c0-1.1,0.9-2,2-2h8.8c1.1,0,2,0.9,2,2V148.3z"/>
		<path class="st2" d="M147.3,148.3c0,1.1-0.9,2-2,2h-8.8c-1.1,0-2-0.9-2-2v-4.8c0-1.1,0.9-2,2-2h8.8c1.1,0,2,0.9,2,2V148.3z"/>
	</g>
	<g>
		<path class="st9" d="M164.5,148.3c0,1.1-0.9,2-2,2h-8.8c-1.1,0-2-0.9-2-2v-4.8c0-1.1,0.9-2,2-2h8.8c1.1,0,2,0.9,2,2V148.3z"/>
		<path class="st2" d="M164.5,148.3c0,1.1-0.9,2-2,2h-8.8c-1.1,0-2-0.9-2-2v-4.8c0-1.1,0.9-2,2-2h8.8c1.1,0,2,0.9,2,2V148.3z"/>
	</g>
	<g>
		<path class="st9" d="M181.7,148.3c0,1.1-0.9,2-2,2h-8.8c-1.1,0-2-0.9-2-2v-4.8c0-1.1,0.9-2,2-2h8.8c1.1,0,2,0.9,2,2V148.3z"/>
		<path class="st2" d="M181.7,148.3c0,1.1-0.9,2-2,2h-8.8c-1.1,0-2-0.9-2-2v-4.8c0-1.1,0.9-2,2-2h8.8c1.1,0,2,0.9,2,2V148.3z"/>
	</g>
	<g>
		<path class="st9" d="M87.5,160.5c0,1.1-0.9,2-2,2h-8.8c-1.1,0-2-0.9-2-2v-4.8c0-1.1,0.9-2,2-2h8.8c1.1,0,2,0.9,2,2V160.5z"/>
		<path class="st2" d="M87.5,160.5c0,1.1-0.9,2-2,2h-8.8c-1.1,0-2-0.9-2-2v-4.8c0-1.1,0.9-2,2-2h8.8c1.1,0,2,0.9,2,2V160.5z"/>
	</g>
	<g>
		<path class="st9" d="M104.7,160.5c0,1.1-0.9,2-2,2h-8.8c-1.1,0-2-0.9-2-2v-4.8c0-1.1,0.9-2,2-2h8.8c1.1,0,2,0.9,2,2V160.5z"/>
		<path class="st2" d="M104.7,160.5c0,1.1-0.9,2-2,2h-8.8c-1.1,0-2-0.9-2-2v-4.8c0-1.1,0.9-2,2-2h8.8c1.1,0,2,0.9,2,2V160.5z"/>
	</g>
	<g>
		<path class="st9" d="M156.9,160.5c0,1.1-0.9,2-2,2h-43.8c-1.1,0-2-0.9-2-2v-4.8c0-1.1,0.9-2,2-2h43.8c1.1,0,2,0.9,2,2V160.5z"/>
		<path class="st2" d="M156.9,160.5c0,1.1-0.9,2-2,2h-43.8c-1.1,0-2-0.9-2-2v-4.8c0-1.1,0.9-2,2-2h43.8c1.1,0,2,0.9,2,2V160.5z"/>
	</g>
	<g>
		<path class="st9" d="M173.5,160.5c0,1.1-0.9,2-2,2h-8.8c-1.1,0-2-0.9-2-2v-4.8c0-1.1,0.9-2,2-2h8.8c1.1,0,2,0.9,2,2V160.5z"/>
		<path class="st2" d="M173.5,160.5c0,1.1-0.9,2-2,2h-8.8c-1.1,0-2-0.9-2-2v-4.8c0-1.1,0.9-2,2-2h8.8c1.1,0,2,0.9,2,2V160.5z"/>
	</g>
	<g>
		<path class="st9" d="M189.5,160.5c0,1.1-0.9,2-2,2h-8.8c-1.1,0-2-0.9-2-2v-4.8c0-1.1,0.9-2,2-2h8.8c1.1,0,2,0.9,2,2V160.5z"/>
		<path class="st2" d="M189.5,160.5c0,1.1-0.9,2-2,2h-8.8c-1.1,0-2-0.9-2-2v-4.8c0-1.1,0.9-2,2-2h8.8c1.1,0,2,0.9,2,2V160.5z"/>
	</g>
</g>
<g>
	<path class="st9" d="M58.5,73v5.2h5v1.3h-5v5.2h-1.4v-5.2h-5v-1.3h5V73H58.5z"/>
</g>
<g>
	<path class="st9" d="M200,39.6v5.2h5v1.3h-5v5.2h-1.4v-5.2h-5v-1.3h5v-5.2H200z"/>
</g>
<g>
	<path class="st9" d="M223.5,134.8v5.2h5v1.3h-5v5.2h-1.4v-5.2h-5V140h5v-5.2H223.5z"/>
</g>
<g>
	<path class="st9" d="M23.8,125.7v2.9h2.8v0.7h-2.8v2.9H23v-2.9h-2.8v-0.7H23v-2.9H23.8z"/>
</g>
<g>
	<path class="st9" d="M227.4,69.8v2.9h2.8v0.7h-2.8v2.9h-0.8v-2.9h-2.8v-0.7h2.8v-2.9H227.4z"/>
</g>
<g>
	<path class="st9" d="M61.3,42.2v2.9H64v0.7h-2.8v2.9h-0.8v-2.9h-2.8v-0.7h2.8v-2.9H61.3z"/>
</g>
<circle class="st9" cx="28.9" cy="66.3" r="2.3"/>
<circle class="st9" cx="240.2" cy="122.8" r="2.3"/>
<circle class="st9" cx="175.7" cy="193.8" r="2.3"/>
<circle class="st9" cx="41.9" cy="172.1" r="2.3"/>
<circle class="st9" cx="48.2" cy="113.6" r="1.7"/>
<circle class="st9" cx="220.4" cy="98.9" r="1.7"/>
<g>
	<path class="st9" d="M212.8,176.4v2.9h2.8v0.7h-2.8v2.9H212V180h-2.8v-0.7h2.8v-2.9H212.8z"/>
</g>
<g>
	<path class="st9" d="M93.2,190.6v2.9H96v0.7h-2.8v2.9h-0.8v-2.9h-2.8v-0.7h2.8v-2.9H93.2z"/>
</g>
<g>
	<path class="st9" d="M58.2,142.6v2.9h2.8v0.7h-2.8v2.9h-0.8v-2.9h-2.8v-0.7h2.8v-2.9H58.2z"/>
</g>
</svg>
