<svg id="Layer_1" data-name="Layer 1" xmlns="http://www.w3.org/2000/svg" viewBox="0 0 222.32 189.96"><defs><style>.cls-1{fill:#f5f5f5;}.cls-2,.cls-4{fill:#fff;}.cls-3{fill:none;}.cls-3,.cls-7,.cls-9{stroke:#000;}.cls-3,.cls-4,.cls-7,.cls-8,.cls-9{stroke-miterlimit:10;}.cls-4{stroke:#e0e0e0;}.cls-4,.cls-8{stroke-linecap:round;stroke-width:3px;}.cls-5{fill:#34dddd;}.cls-6,.cls-7,.cls-8{fill:#a7f9f7;}.cls-8{stroke:#fff;}.cls-9{fill:#bdbdbd;}.cls-10{fill:#07d6c7;}</style></defs><title>writers</title><path class="cls-1" d="M70.68,73.68C53,70.24,30.43,84.9,27.09,101.52c-2,9.81,4.43,12,4.73,25.47,0.49,22.79-17.47,33.38-13.13,41.22C24,177.75,49.95,161,77.24,171.1c27.57,10.24,24.49,36.07,49.1,43.85,25.84,8.17,63.26-9.55,73-33.87,6.59-16.46-2.21-29.19,9.45-46.21,7.6-11.09,14.08-9.7,19.43-20C237.49,97.12,230.44,69,218,65c-13.45-4.32-23.81,22.45-42,20-20.63-2.83-24.61-39.59-39.91-39.39-16.23.22-22.11,41.71-40.7,42C85.58,87.76,84.2,76.32,70.68,73.68Z" transform="translate(-12.48 -27)"/><rect x="69.02" y="51.99" width="110.5" height="9.01"/><path class="cls-2" d="M84,88.11L83.85,32.93a4.91,4.91,0,0,1,5-4.93h95.07A4.86,4.86,0,0,1,189,32.68V88" transform="translate(-12.48 -27)"/><path class="cls-3" d="M83.77,88.11l0-55.43A5.23,5.23,0,0,1,88.8,27.5h95.07c2.75,0,4.63,2.43,4.63,5.18V88" transform="translate(-12.48 -27)"/><line class="cls-4" x1="100.52" y1="18.5" x2="164.52" y2="18.5"/><line class="cls-4" x1="85.52" y1="43.5" x2="164.52" y2="43.5"/><line class="cls-4" x1="85.52" y1="26.5" x2="164.52" y2="26.5"/><line class="cls-4" x1="85.52" y1="34.5" x2="164.52" y2="34.5"/><line class="cls-4" x1="85.52" y1="51.5" x2="154.52" y2="51.5"/><path class="cls-5" d="M50.74,81.5v5.17h5V88h-5v5.21H49.33V88h-5V86.67h5V81.5h1.41Z" transform="translate(-12.48 -27)"/><path class="cls-5" d="M206.06,47.38v5.17h5v1.32h-5v5.21h-1.41V53.87h-5V52.55h5V47.38h1.41Z" transform="translate(-12.48 -27)"/><path class="cls-5" d="M215.75,143.25v5.17h5v1.32h-5V155h-1.41v-5.21h-5v-1.32h5v-5.17h1.41Z" transform="translate(-12.48 -27)"/><path class="cls-5" d="M16.06,134.21v2.91h2.79v0.74H16.06v2.93H15.27v-2.93H12.48v-0.74h2.79v-2.91h0.79Z" transform="translate(-12.48 -27)"/><path class="cls-5" d="M219.69,78.23v2.89h2.78v0.74h-2.78v2.91H218.9V81.86h-2.78V81.12h2.78V78.23h0.79Z" transform="translate(-12.48 -27)"/><path class="cls-5" d="M65.39,53.23v2.89h2.78v0.74H65.39v2.91H64.61V56.86H61.83V56.12h2.78V53.23h0.79Z" transform="translate(-12.48 -27)"/><circle class="cls-5" cx="16.36" cy="54.5" r="2.33"/><circle class="cls-5" cx="219.99" cy="104.27" r="2.33"/><circle class="cls-5" cx="155.52" cy="175.28" r="2.33"/><circle class="cls-5" cx="24.01" cy="161.5" r="2.33"/><circle class="cls-5" cx="28.01" cy="82.75" r="1.67"/><circle class="cls-5" cx="214.82" cy="75.5" r="1.67"/><path class="cls-5" d="M222.86,182.9v2.89h2.78v0.74h-2.78v2.91h-0.79v-2.91H219.3v-0.74h2.78V182.9h0.79Z" transform="translate(-12.48 -27)"/><path class="cls-5" d="M85.44,199v2.89h2.78v0.74H85.44v2.91H84.65v-2.91H81.88V201.9h2.78V199h0.79Z" transform="translate(-12.48 -27)"/><rect class="cls-6" x="62.86" y="60.93" width="122.67" height="91.74" rx="5" ry="5"/><rect class="cls-3" x="62.86" y="60.93" width="122.67" height="91.74" rx="5" ry="5"/><line class="cls-7" x1="62.52" y1="143.5" x2="185.52" y2="143.5"/><line class="cls-8" x1="99.52" y1="69.5" x2="147.52" y2="69.5"/><path class="cls-3" d="M75.33,108.09A6,6,0,0,0,81.5,104V88" transform="translate(-12.48 -27)"/><path class="cls-3" d="M191.5,88v16a6,6,0,0,0,6.17,4.09" transform="translate(-12.48 -27)"/><line class="cls-3" x1="68.52" y1="77.5" x2="179.52" y2="77.5"/><rect class="cls-3" x="53.52" y="63.65" width="5.17" height="16.44" rx="2.58" ry="2.58"/><line class="cls-9" x1="58.52" y1="69.5" x2="62.52" y2="69.5"/><line class="cls-9" x1="58.52" y1="73.5" x2="62.52" y2="73.5"/><rect class="cls-3" x="201.83" y="90.65" width="5.17" height="16.44" rx="2.58" ry="2.58" transform="translate(396.36 170.74) rotate(180)"/><line class="cls-9" x1="189.52" y1="69.5" x2="185.52" y2="69.5"/><line class="cls-9" x1="189.52" y1="73.5" x2="185.52" y2="73.5"/><rect class="cls-10" x="69.4" y="93.25" width="109.62" height="46.25" rx="5" ry="5"/><rect class="cls-3" x="69.4" y="93.25" width="109.62" height="46.25" rx="5" ry="5"/><rect class="cls-5" x="75.74" y="91" width="12.78" height="8.75" rx="2" ry="2"/><rect class="cls-3" x="75.74" y="91" width="12.78" height="8.75" rx="2" ry="2"/><rect class="cls-5" x="92.94" y="91" width="12.78" height="8.75" rx="2" ry="2"/><rect class="cls-3" x="92.94" y="91" width="12.78" height="8.75" rx="2" ry="2"/><rect class="cls-5" x="110.14" y="91" width="12.78" height="8.75" rx="2" ry="2"/><rect class="cls-3" x="110.14" y="91" width="12.78" height="8.75" rx="2" ry="2"/><rect class="cls-5" x="127.34" y="91" width="12.78" height="8.75" rx="2" ry="2"/><rect class="cls-3" x="127.34" y="91" width="12.78" height="8.75" rx="2" ry="2"/><rect class="cls-5" x="144.54" y="91" width="12.78" height="8.75" rx="2" ry="2"/><rect class="cls-3" x="144.54" y="91" width="12.78" height="8.75" rx="2" ry="2"/><rect class="cls-5" x="161.74" y="91" width="12.78" height="8.75" rx="2" ry="2"/><rect class="cls-3" x="161.74" y="91" width="12.78" height="8.75" rx="2" ry="2"/><rect class="cls-5" x="67.14" y="102.23" width="12.78" height="8.75" rx="2" ry="2"/><rect class="cls-3" x="67.14" y="102.23" width="12.78" height="8.75" rx="2" ry="2"/><rect class="cls-5" x="84.34" y="102.23" width="12.78" height="8.75" rx="2" ry="2"/><rect class="cls-3" x="84.34" y="102.23" width="12.78" height="8.75" rx="2" ry="2"/><rect class="cls-5" x="101.54" y="102.23" width="12.78" height="8.75" rx="2" ry="2"/><rect class="cls-3" x="101.54" y="102.23" width="12.78" height="8.75" rx="2" ry="2"/><rect class="cls-5" x="118.74" y="102.23" width="12.78" height="8.75" rx="2" ry="2"/><rect class="cls-3" x="118.74" y="102.23" width="12.78" height="8.75" rx="2" ry="2"/><rect class="cls-5" x="135.94" y="102.23" width="12.78" height="8.75" rx="2" ry="2"/><rect class="cls-3" x="135.94" y="102.23" width="12.78" height="8.75" rx="2" ry="2"/><rect class="cls-5" x="153.14" y="102.23" width="12.78" height="8.75" rx="2" ry="2"/><rect class="cls-3" x="153.14" y="102.23" width="12.78" height="8.75" rx="2" ry="2"/><rect class="cls-5" x="169.13" y="102.23" width="12.78" height="8.75" rx="2" ry="2"/><rect class="cls-3" x="169.13" y="102.23" width="12.78" height="8.75" rx="2" ry="2"/><rect class="cls-5" x="75.53" y="114.5" width="12.78" height="8.75" rx="2" ry="2"/><rect class="cls-3" x="75.53" y="114.5" width="12.78" height="8.75" rx="2" ry="2"/><rect class="cls-5" x="92.73" y="114.5" width="12.78" height="8.75" rx="2" ry="2"/><rect class="cls-3" x="92.73" y="114.5" width="12.78" height="8.75" rx="2" ry="2"/><rect class="cls-5" x="109.93" y="114.5" width="12.78" height="8.75" rx="2" ry="2"/><rect class="cls-3" x="109.93" y="114.5" width="12.78" height="8.75" rx="2" ry="2"/><rect class="cls-5" x="127.13" y="114.5" width="12.78" height="8.75" rx="2" ry="2"/><rect class="cls-3" x="127.13" y="114.5" width="12.78" height="8.75" rx="2" ry="2"/><rect class="cls-5" x="144.33" y="114.5" width="12.78" height="8.75" rx="2" ry="2"/><rect class="cls-3" x="144.33" y="114.5" width="12.78" height="8.75" rx="2" ry="2"/><rect class="cls-5" x="161.53" y="114.5" width="12.78" height="8.75" rx="2" ry="2"/><rect class="cls-3" x="161.53" y="114.5" width="12.78" height="8.75" rx="2" ry="2"/><rect class="cls-5" x="67.33" y="126.77" width="12.78" height="8.75" rx="2" ry="2"/><rect class="cls-3" x="67.33" y="126.77" width="12.78" height="8.75" rx="2" ry="2"/><rect class="cls-5" x="84.53" y="126.77" width="12.78" height="8.75" rx="2" ry="2"/><rect class="cls-3" x="84.53" y="126.77" width="12.78" height="8.75" rx="2" ry="2"/><rect class="cls-5" x="101.73" y="126.77" width="47.8" height="8.75" rx="2" ry="2"/><rect class="cls-3" x="101.73" y="126.77" width="47.8" height="8.75" rx="2" ry="2"/><rect class="cls-5" x="153.33" y="126.77" width="12.78" height="8.75" rx="2" ry="2"/><rect class="cls-3" x="153.33" y="126.77" width="12.78" height="8.75" rx="2" ry="2"/><rect class="cls-5" x="169.32" y="126.77" width="12.78" height="8.75" rx="2" ry="2"/><rect class="cls-3" x="169.32" y="126.77" width="12.78" height="8.75" rx="2" ry="2"/><path class="cls-5" d="M57,147v2.89h2.78v0.74H57v2.91H56.25v-2.91H53.47v-0.74h2.78V147H57Z" transform="translate(-12.48 -27)"/></svg>